<?xml version="1.0" encoding="utf-8"?>
<!-- Generator: Adobe Illustrator 22.1.0, SVG Export Plug-In . SVG Version: 6.00 Build 0)  -->
<svg version="1.1" id="Layer_1" xmlns="http://www.w3.org/2000/svg" xmlns:xlink="http://www.w3.org/1999/xlink" x="0px" y="0px"
	 viewBox="0 0 242.3 236.4" style="enable-background:new 0 0 242.3 236.4;" xml:space="preserve">
<title>spinner</title>
<g id="Layer_2_1_">
	<g id="Layer_1-2">
		<path d="M98.2,196.9c-43.5-12.7-68.4-58.3-55.6-101.8c7.9-26.8,28.8-47.8,55.6-55.6V16.8C42.2,29.4,7,85.1,19.7,141.1
			c8.8,39.1,39.4,69.7,78.5,78.5V196.9z"/>
		<path d="M144.2,16.8v22.7c43.5,12.7,68.4,58.3,55.6,101.8c-7.9,26.8-28.8,47.8-55.6,55.6v22.8c56-12.7,91.2-68.3,78.5-124.4
			C213.8,56.1,183.3,25.6,144.2,16.8z"/>
		<g id="_Group_">
			<polygon points="40.2,219.6 78.2,154.6 116.2,219.6 			"/>
		</g>
		<g id="_Group_2">
			<polygon points="192,12.2 154,77.2 116,12.2 			"/>
		</g>
	</g>
</g>
</svg>
